<svg xmlns="http://www.w3.org/2000/svg" viewBox="0 0 100 100"><path fill="#c7ede6" d="M88.494,55.791c0.299-0.614,0.563-1.259,0.792-1.935c2.622-7.739-1.343-17.008-9.693-19.245c-0.903-11.338-8.87-19.115-17.867-20.442c-10.298-1.519-19.733,5.023-22.872,15.422c-3.784-1.34-7.471-1.177-10.945,0.853c-1.576,0.729-3.018,1.805-4.312,3.22c-1.9,2.077-3.134,4.7-3.637,7.465c-0.745,0.117-1.477,0.235-2.167,0.482c-4.023,1.443-6.562,4.413-7.258,8.886c-0.434,2.785,0.441,5.564,0.929,6.687c1.927,4.436,6.396,6.952,10.936,6.286c0.226-0.033,0.554,0.069,0.749,0.232c0.24,7.091,3.683,13.362,8.848,16.944c8.287,5.748,18.949,3.977,25.675-3.905c2.882,2.948,6.313,4.38,10.342,3.86c4.006-0.517,7.117-2.728,9.387-6.322c1.048,0.282,2.043,0.689,3.071,0.801c4.025,0.44,7.294-1.161,9.692-4.78c0.918-1.385,1.786-3.181,1.786-6.328C91.95,60.727,90.662,57.772,88.494,55.791z"/><path fill="#fdfcef" d="M73.819,46.182c0,0,11.643,0,11.714,0c2.689,0,4.868-2.18,4.868-4.869c0-2.346-1.659-4.303-3.868-4.765c0.025-0.205,0.043-0.413,0.043-0.625c0-2.785-2.257-5.042-5.042-5.042c-1.644,0-3.1,0.791-4.02,2.008c-0.235-3.1-3.004-5.491-6.244-5.095c-2.369,0.29-4.328,2.121-4.764,4.467c-0.14,0.752-0.125,1.483,0.014,2.168c-0.635-0.684-1.539-1.115-2.546-1.115c-1.843,0-3.347,1.435-3.466,3.248c-0.837-0.185-1.747-0.173-2.706,0.187c-1.832,0.688-3.137,2.413-3.214,4.369c-0.108,2.778,2.111,5.064,4.864,5.064c0.209,0,0.944,0,1.114,0h10.109"/><path fill="#472b29" d="M85.533,46.682H73.819c-0.276,0-0.5-0.224-0.5-0.5s0.224-0.5,0.5-0.5h11.714c2.408,0,4.368-1.96,4.368-4.368c0-2.058-1.459-3.855-3.471-4.275c-0.254-0.053-0.426-0.292-0.394-0.551c0.022-0.186,0.039-0.372,0.039-0.564c0-2.505-2.037-4.542-4.542-4.542c-1.432,0-2.752,0.659-3.622,1.81c-0.125,0.165-0.343,0.237-0.539,0.178c-0.2-0.059-0.342-0.234-0.358-0.441c-0.104-1.371-0.775-2.659-1.841-3.533c-1.078-0.883-2.441-1.276-3.844-1.104c-2.156,0.265-3.938,1.935-4.333,4.062c-0.123,0.667-0.119,1.332,0.013,1.979c0.045,0.22-0.062,0.442-0.262,0.544c-0.197,0.105-0.442,0.061-0.595-0.104c-0.571-0.615-1.345-0.954-2.18-0.954c-1.562,0-2.864,1.221-2.967,2.78c-0.01,0.146-0.082,0.279-0.199,0.366c-0.117,0.088-0.269,0.119-0.407,0.089c-0.84-0.185-1.633-0.13-2.423,0.166c-1.661,0.624-2.822,2.2-2.889,3.921c-0.047,1.201,0.385,2.339,1.216,3.203c0.831,0.865,1.949,1.341,3.148,1.341h11.223c0.276,0,0.5,0.224,0.5,0.5s-0.224,0.5-0.5,0.5H59.453c-1.474,0-2.848-0.585-3.869-1.647c-1.021-1.062-1.553-2.46-1.495-3.936c0.083-2.117,1.504-4.054,3.537-4.817c0.797-0.299,1.622-0.397,2.457-0.298c0.377-1.814,1.99-3.168,3.891-3.168c0.681,0,1.347,0.178,1.934,0.506c0-0.383,0.036-0.768,0.107-1.151c0.474-2.553,2.609-4.556,5.194-4.872c1.673-0.205,3.308,0.265,4.599,1.322c0.999,0.819,1.708,1.941,2.029,3.178c1.008-0.91,2.31-1.417,3.697-1.417c3.056,0,5.542,2.486,5.542,5.542c0,0.083-0.002,0.165-0.007,0.246c2.245,0.671,3.832,2.767,3.832,5.145C90.901,44.274,88.493,46.682,85.533,46.682z"/><path fill="#fdfcef" d="M87.504,37.12c-1.692-0.798-3.649-0.233-4.371,1.262c-0.09,0.186-0.156,0.377-0.2,0.571"/><path fill="#472b29" d="M82.933,39.203c-0.018,0-0.036-0.002-0.055-0.006c-0.135-0.03-0.22-0.165-0.189-0.299c0.049-0.216,0.123-0.426,0.22-0.626c0.778-1.615,2.889-2.234,4.701-1.379c0.125,0.06,0.179,0.208,0.12,0.333c-0.059,0.126-0.21,0.176-0.333,0.12c-1.567-0.741-3.378-0.225-4.038,1.144c-0.081,0.166-0.142,0.34-0.182,0.518C83.151,39.124,83.047,39.203,82.933,39.203z"/><path fill="#fff" d="M18.448 47.861H8.459c-.276 0-.5-.224-.5-.5s.224-.5.5-.5h9.989c.276 0 .5.224.5.5S18.724 47.861 18.448 47.861zM21.317 47.861h-1.439c-.276 0-.5-.224-.5-.5s.224-.5.5-.5h1.439c.276 0 .5.224.5.5S21.593 47.861 21.317 47.861zM25.355 47.861H22.82c-.276 0-.5-.224-.5-.5s.224-.5.5-.5h2.535c.276 0 .5.224.5.5S25.631 47.861 25.355 47.861zM25.355 49.718h-9.577c-.276 0-.5-.224-.5-.5s.224-.5.5-.5h9.577c.276 0 .5.224.5.5S25.631 49.718 25.355 49.718zM14.053 49.718h-.577c-.276 0-.5-.224-.5-.5s.224-.5.5-.5h.577c.276 0 .5.224.5.5S14.33 49.718 14.053 49.718zM11.686 49.718h-1.45c-.276 0-.5-.224-.5-.5s.224-.5.5-.5h1.45c.276 0 .5.224.5.5S11.962 49.718 11.686 49.718zM20.785 46.004h-5.007c-.276 0-.5-.224-.5-.5s.224-.5.5-.5h5.007c.276 0 .5.224.5.5S21.061 46.004 20.785 46.004zM20.785 44.146h-1.252c-.276 0-.5-.224-.5-.5s.224-.5.5-.5h1.252c.276 0 .5.224.5.5S21.061 44.146 20.785 44.146zM17.53 51.576h-1.752c-.276 0-.5-.224-.5-.5s.224-.5.5-.5h1.752c.276 0 .5.224.5.5S17.806 51.576 17.53 51.576zM71.408 21.692h-9.989c-.276 0-.5-.224-.5-.5s.224-.5.5-.5h9.989c.276 0 .5.224.5.5S71.684 21.692 71.408 21.692zM74.277 21.692h-1.439c-.276 0-.5-.224-.5-.5s.224-.5.5-.5h1.439c.276 0 .5.224.5.5S74.553 21.692 74.277 21.692zM78.315 21.692h-2.536c-.276 0-.5-.224-.5-.5s.224-.5.5-.5h2.536c.276 0 .5.224.5.5S78.591 21.692 78.315 21.692zM76.297 17.977H66.72c-.276 0-.5-.224-.5-.5s.224-.5.5-.5h9.577c.276 0 .5.224.5.5S76.574 17.977 76.297 17.977zM64.996 17.977h-.577c-.276 0-.5-.224-.5-.5s.224-.5.5-.5h.577c.276 0 .5.224.5.5S65.272 17.977 64.996 17.977zM62.628 17.977h-1.45c-.276 0-.5-.224-.5-.5s.224-.5.5-.5h1.45c.276 0 .5.224.5.5S62.905 17.977 62.628 17.977zM73.745 19.835h-5.007c-.276 0-.5-.224-.5-.5s.224-.5.5-.5h5.007c.276 0 .5.224.5.5S74.021 19.835 73.745 19.835z"/><path fill="#fff" d="M73.745 17.977h-1.252c-.276 0-.5-.224-.5-.5s.224-.5.5-.5h1.252c.276 0 .5.224.5.5S74.021 17.977 73.745 17.977zM67.289 19.835h-1.752c-.276 0-.5-.224-.5-.5s.224-.5.5-.5h1.752c.276 0 .5.224.5.5S67.565 19.835 67.289 19.835z"/><path fill="#fdfcef" d="M30.753,70.578c1.876,0,3.502,0,3.526,0c2.101,0,3.805-1.667,3.805-3.724c0-1.794-1.297-3.292-3.023-3.645c0.02-0.157,0.033-0.316,0.033-0.478c0-2.13-1.764-3.857-3.941-3.857c-1.285,0-2.423,0.605-3.142,1.536c-0.184-2.371-2.348-4.2-4.88-3.897c-1.851,0.222-3.383,1.622-3.723,3.417c-0.109,0.576-0.098,1.134,0.011,1.659c-0.496-0.523-1.203-0.853-1.99-0.853c-1.44,0-2.616,1.097-2.709,2.484c-0.654-0.142-1.365-0.132-2.115,0.143c-1.432,0.526-2.452,1.846-2.512,3.342c-0.085,2.125,1.65,3.873,3.802,3.873c0.163,0,0.738,0,0.87,0h7.901 M24.302,70.578h0.358"/><path fill="#472b29" d="M34.279,71.078h-3.525c-0.276,0-0.5-0.224-0.5-0.5s0.224-0.5,0.5-0.5h3.525c1.822,0,3.305-1.446,3.305-3.224c0-1.518-1.103-2.844-2.622-3.154c-0.256-0.053-0.429-0.293-0.396-0.552c0.017-0.137,0.029-0.275,0.029-0.417c0-1.852-1.543-3.357-3.44-3.357c-1.087,0-2.088,0.489-2.747,1.342c-0.126,0.164-0.338,0.23-0.539,0.174c-0.197-0.06-0.339-0.234-0.354-0.44c-0.079-1.015-0.562-1.935-1.362-2.591c-0.825-0.677-1.876-0.978-2.96-0.85c-1.639,0.196-2.992,1.436-3.292,3.015c-0.093,0.491-0.09,0.983,0.009,1.464c0.046,0.219-0.06,0.441-0.258,0.545c-0.197,0.103-0.439,0.063-0.595-0.1c-0.426-0.449-1.003-0.696-1.627-0.696c-1.163,0-2.134,0.887-2.209,2.018c-0.01,0.146-0.082,0.278-0.198,0.366c-0.116,0.087-0.264,0.122-0.406,0.089c-0.634-0.137-1.236-0.097-1.838,0.124c-1.255,0.461-2.133,1.624-2.184,2.893c-0.035,0.87,0.282,1.699,0.892,2.333c0.632,0.657,1.488,1.02,2.411,1.02h8.771c0.276,0,0.5,0.224,0.5,0.5s-0.224,0.5-0.5,0.5h-8.771c-1.181,0-2.322-0.483-3.133-1.326c-0.8-0.832-1.215-1.921-1.17-3.066c0.068-1.669,1.209-3.192,2.839-3.792c0.608-0.223,1.237-0.302,1.873-0.243c0.343-1.39,1.623-2.414,3.123-2.414c0.49,0,0.972,0.112,1.406,0.32c0.009-0.24,0.036-0.48,0.082-0.72c0.38-2.002,2.089-3.573,4.155-3.82c1.354-0.16,2.676,0.217,3.713,1.068c0.744,0.61,1.271,1.402,1.539,2.29c0.788-0.645,1.778-1.001,2.83-1.001c2.448,0,4.44,1.955,4.44,4.357c0,0.033-0.001,0.067-0.001,0.101c1.757,0.553,2.99,2.18,2.99,4.022C38.584,69.183,36.653,71.078,34.279,71.078z M24.661,71.078h-0.358c-0.276,0-0.5-0.224-0.5-0.5s0.224-0.5,0.5-0.5h0.358c0.276,0,0.5,0.224,0.5,0.5S24.937,71.078,24.661,71.078z"/><path fill="#472b29" d="M32.579 65.297c-.018 0-.036-.002-.055-.006-.135-.03-.22-.164-.189-.299.037-.166.094-.327.168-.478.604-1.221 2.268-1.67 3.708-1.003.126.058.181.206.122.331-.058.126-.209.179-.331.122-1.2-.554-2.566-.205-3.05.771-.057.115-.101.238-.129.366C32.796 65.218 32.693 65.297 32.579 65.297zM27.441 71.078h-1.103c-.276 0-.5-.224-.5-.5s.224-.5.5-.5h1.103c.276 0 .5.224.5.5S27.717 71.078 27.441 71.078z"/><path fill="#a2a2cc" d="M33.803,66.489h34.923c2.75,0,5-2.25,5-5V41.252c0-2.75-2.25-5-5-5H33.803c-2.75,0-5,2.25-5,5v20.237C28.803,64.239,31.053,66.489,33.803,66.489z"/><path fill="#472b29" d="M68.726,67.189H33.803c-3.143,0-5.7-2.558-5.7-5.7V41.252c0-3.143,2.558-5.7,5.7-5.7h34.923c3.143,0,5.7,2.558,5.7,5.7v20.237C74.426,64.631,71.869,67.189,68.726,67.189z M33.803,36.952c-2.371,0-4.3,1.929-4.3,4.3v20.237c0,2.371,1.929,4.3,4.3,4.3h34.923c2.371,0,4.3-1.929,4.3-4.3V41.252c0-2.371-1.929-4.3-4.3-4.3H33.803z"/><path fill="#565fa0" d="M32.911 50.408L69.627 50.408 69.834 45.224 32.695 45.224z"/><path fill="#472b29" d="M69.988 50.783H32.551l-.247-5.934h37.921L69.988 50.783zM33.27 50.033h35.997l.177-4.434H33.085L33.27 50.033zM64.655 40.514h-4.319c-.207 0-.375-.168-.375-.375s.168-.375.375-.375h4.319c.207 0 .375.168.375.375S64.862 40.514 64.655 40.514z"/><path fill="#472b29" d="M66.89 62.976H35.639c-1.832 0-3.323-1.491-3.323-3.323V43.087c0-1.832 1.491-3.323 3.323-3.323h22.104c.207 0 .375.168.375.375s-.168.375-.375.375H35.639c-1.419 0-2.573 1.154-2.573 2.573v16.565c0 1.419 1.154 2.573 2.573 2.573H66.89c1.419 0 2.573-1.154 2.573-2.573V42.731c0-.207.168-.375.375-.375s.375.168.375.375v16.922C70.213 61.485 68.722 62.976 66.89 62.976zM67.247 40.514h-.864c-.207 0-.375-.168-.375-.375s.168-.375.375-.375h.864c.207 0 .375.168.375.375S67.454 40.514 67.247 40.514z"/><path fill="#472b29" d="M69.407 45.698H32.691c-.207 0-.375-.168-.375-.375s.168-.375.375-.375h36.716c.207 0 .375.168.375.375S69.614 45.698 69.407 45.698zM69.623 50.881H32.907c-.207 0-.375-.168-.375-.375s.168-.375.375-.375h36.716c.207 0 .375.168.375.375S69.83 50.881 69.623 50.881z"/><path fill="#472b29" d="M67.811 50.558c-.084 0-.166-.042-.213-.119l-3.068-4.985c-.072-.117-.036-.271.082-.344s.271-.036.344.082l3.068 4.985c.072.117.036.271-.082.344C67.901 50.546 67.856 50.558 67.811 50.558zM62.735 50.558c-.084 0-.166-.042-.213-.119l-3.067-4.985c-.072-.117-.036-.271.082-.344s.272-.036.344.082l3.067 4.985c.072.117.036.271-.082.344C62.825 50.546 62.78 50.558 62.735 50.558zM57.659 50.558c-.084 0-.166-.042-.213-.119l-3.067-4.985c-.072-.117-.036-.271.082-.344s.272-.036.344.082l3.067 4.985c.072.117.036.271-.082.344C57.749 50.546 57.704 50.558 57.659 50.558zM52.583 50.558c-.084 0-.166-.042-.213-.119l-3.067-4.985c-.072-.117-.036-.271.082-.344.119-.072.271-.036.344.082l3.067 4.985c.072.117.036.271-.082.344C52.672 50.546 52.627 50.558 52.583 50.558zM47.506 50.558c-.084 0-.166-.042-.213-.119l-3.067-4.985c-.072-.117-.036-.271.082-.344.119-.072.272-.036.344.082l3.067 4.985c.072.117.036.271-.082.344C47.596 50.546 47.551 50.558 47.506 50.558zM42.43 50.558c-.084 0-.166-.042-.213-.119l-3.067-4.985c-.072-.117-.036-.271.082-.344s.272-.036.344.082l3.067 4.985c.072.117.036.271-.082.344C42.52 50.546 42.475 50.558 42.43 50.558zM37.354 50.558c-.084 0-.166-.042-.213-.119l-3.067-4.985c-.072-.117-.036-.271.082-.344s.272-.036.344.082l3.067 4.985c.072.117.036.271-.082.344C37.444 50.546 37.399 50.558 37.354 50.558z"/><path fill="#fdfcee" d="M34.342 52.043A9.613 9.613 0 1 0 34.342 71.269A9.613 9.613 0 1 0 34.342 52.043Z"/><path fill="#472b29" d="M34.342,71.968c-5.687,0-10.313-4.626-10.313-10.312s4.627-10.312,10.313-10.312s10.312,4.626,10.312,10.312S40.029,71.968,34.342,71.968z M34.342,52.744c-4.915,0-8.913,3.998-8.913,8.912s3.998,8.912,8.913,8.912c4.914,0,8.912-3.998,8.912-8.912S39.256,52.744,34.342,52.744z"/><path fill="#472b29" d="M36.92,61.568c-0.276,0-0.5-0.224-0.5-0.5v-2.253c0-0.896-0.968-1.713-2.031-1.713c-0.983,0-2.126,0.758-2.126,1.735v2.23c0,0.276-0.224,0.5-0.5,0.5s-0.5-0.224-0.5-0.5v-2.23c0-1.565,1.65-2.735,3.126-2.735c1.615,0,3.031,1.268,3.031,2.713v2.253C37.42,61.344,37.197,61.568,36.92,61.568z"/><path fill="#8889b9" d="M35.75,66.381h-2.817c-1.561,0-2.839-1.278-2.839-2.839v-3.107c0-0.047,0.038-0.085,0.085-0.085h8.325c0.047,0,0.085,0.038,0.085,0.085v3.107C38.589,65.103,37.312,66.381,35.75,66.381z"/><path fill="#472b29" d="M35.751,66.881h-2.816c-1.842,0-3.34-1.498-3.34-3.34v-3.106c0-0.322,0.263-0.585,0.586-0.585h8.324c0.322,0,0.585,0.263,0.585,0.585v3.106C39.089,65.383,37.591,66.881,35.751,66.881z M30.594,60.85v2.691c0,1.29,1.05,2.34,2.34,2.34h2.816c1.29,0,2.339-1.05,2.339-2.34V60.85H30.594z"/><path fill="#f1bc19" d="M69.084,65.088v2.977c0,0.818,3.953,1.482,8.829,1.482s8.829-0.663,8.829-1.482v-2.977H69.084z"/><path fill="#472b29" d="M77.913,69.922c-0.942,0-9.204-0.052-9.204-1.857v-2.977c0-0.207,0.168-0.375,0.375-0.375h17.658c0.207,0,0.375,0.168,0.375,0.375v2.977C87.117,69.871,78.855,69.922,77.913,69.922z M69.459,65.463v2.602c0.212,0.346,3.003,1.107,8.454,1.107s8.242-0.762,8.463-1.15l-0.008-2.559H69.459z"/><path fill="#ffd683" d="M77.913 63.613A8.829 1.482 0 1 0 77.913 66.577A8.829 1.482 0 1 0 77.913 63.613Z"/><path fill="#472b29" d="M77.913,66.952c-0.942,0-9.204-0.052-9.204-1.856c0-1.806,8.262-1.857,9.204-1.857s9.204,0.052,9.204,1.857C87.117,66.9,78.855,66.952,77.913,66.952z M77.913,63.988c-5.452,0-8.242,0.762-8.463,1.15c0.221,0.303,3.012,1.063,8.463,1.063c5.258,0,8.041-0.708,8.43-1.106C85.954,64.696,83.171,63.988,77.913,63.988z M86.376,65.138h0.009H86.376z"/><path fill="#f1bc19" d="M69.084,60.167v2.977c0,0.818,3.953,1.482,8.829,1.482s8.829-0.663,8.829-1.482v-2.977H69.084z"/><path fill="#472b29" d="M77.913,65.002c-0.942,0-9.204-0.052-9.204-1.857v-2.977c0-0.207,0.168-0.375,0.375-0.375h17.658c0.207,0,0.375,0.168,0.375,0.375v2.977C87.117,64.95,78.855,65.002,77.913,65.002z M69.459,60.543v2.602c0.212,0.346,3.003,1.107,8.454,1.107s8.242-0.762,8.463-1.15l-0.008-2.559H69.459z"/><path fill="#ffd683" d="M77.913 58.692A8.829 1.482 0 1 0 77.913 61.656A8.829 1.482 0 1 0 77.913 58.692Z"/><path fill="#472b29" d="M77.913,62.031c-0.942,0-9.204-0.052-9.204-1.856c0-1.806,8.262-1.857,9.204-1.857s9.204,0.052,9.204,1.857C87.117,61.979,78.855,62.031,77.913,62.031z M77.913,59.067c-5.451,0-8.242,0.762-8.463,1.15c0.221,0.303,3.012,1.063,8.463,1.063c5.258,0,8.04-0.708,8.43-1.106C85.953,59.775,83.17,59.067,77.913,59.067z M86.376,60.217h0.009H86.376z"/><path fill="#f1bc19" d="M69.084,55.247v2.977c0,0.818,3.953,1.482,8.829,1.482s8.829-0.663,8.829-1.482v-2.977H69.084z"/><path fill="#472b29" d="M77.913,60.081c-0.942,0-9.204-0.052-9.204-1.857v-2.977c0-0.207,0.168-0.375,0.375-0.375h17.658c0.207,0,0.375,0.168,0.375,0.375v2.977C87.117,60.029,78.855,60.081,77.913,60.081z M69.459,55.622v2.602c0.212,0.346,3.002,1.107,8.454,1.107s8.242-0.762,8.463-1.15l-0.008-2.559H69.459z"/><path fill="#ffd683" d="M77.913 53.771A8.829 1.482 0 1 0 77.913 56.735A8.829 1.482 0 1 0 77.913 53.771Z"/><path fill="#472b29" d="M77.913,57.11c-0.942,0-9.204-0.052-9.204-1.856c0-1.806,8.262-1.857,9.204-1.857s9.204,0.052,9.204,1.857C87.117,57.058,78.855,57.11,77.913,57.11z M77.913,54.146c-5.451,0-8.242,0.762-8.463,1.15c0.221,0.303,3.012,1.063,8.463,1.063c5.258,0,8.04-0.708,8.43-1.106C85.953,54.854,83.17,54.146,77.913,54.146z M86.376,55.296h0.009H86.376z"/><path fill="#f1bc19" d="M69.084,50.326v2.977c0,0.818,3.953,1.482,8.829,1.482c4.876,0,8.829-0.663,8.829-1.482v-2.977H69.084z"/><path fill="#472b29" d="M77.913,55.16c-0.942,0-9.204-0.052-9.204-1.856v-2.978c0-0.207,0.168-0.375,0.375-0.375h17.658c0.207,0,0.375,0.168,0.375,0.375v2.978C87.117,55.108,78.855,55.16,77.913,55.16z M69.459,50.701v2.603c0.212,0.346,3.003,1.106,8.454,1.106s8.242-0.761,8.463-1.149l-0.008-2.56H69.459z"/><path fill="#ffd683" d="M77.913 48.851A8.829 1.482 0 1 0 77.913 51.815A8.829 1.482 0 1 0 77.913 48.851Z"/><path fill="#472b29" d="M77.913,52.189c-0.942,0-9.204-0.052-9.204-1.856s8.262-1.856,9.204-1.856s9.204,0.052,9.204,1.856S78.855,52.189,77.913,52.189z M77.913,49.226c-5.451,0-8.242,0.761-8.463,1.149c0.221,0.303,3.012,1.063,8.463,1.063c5.258,0,8.04-0.708,8.43-1.106C85.953,49.934,83.17,49.226,77.913,49.226z M86.376,50.376h0.01H86.376z"/><path fill="#f1bc19" d="M60.747,67.011v2.977c0,0.818,3.953,1.482,8.829,1.482s8.829-0.663,8.829-1.482v-2.977H60.747z"/><path fill="#472b29" d="M69.577,71.845c-0.942,0-9.204-0.052-9.204-1.857v-2.977c0-0.207,0.168-0.375,0.375-0.375h17.658c0.207,0,0.375,0.168,0.375,0.375v2.977C78.781,71.794,70.519,71.845,69.577,71.845z M61.123,67.386v2.602c0.212,0.346,3.003,1.107,8.454,1.107s8.242-0.762,8.463-1.15l-0.008-2.559H61.123z"/><path fill="#ffd683" d="M69.576 65.536A8.829 1.482 0 1 0 69.576 68.5A8.829 1.482 0 1 0 69.576 65.536Z"/><path fill="#472b29" d="M69.577,68.875c-0.942,0-9.204-0.052-9.204-1.856c0-1.806,8.262-1.857,9.204-1.857s9.204,0.052,9.204,1.857C78.781,68.823,70.519,68.875,69.577,68.875z M69.577,65.911c-5.451,0-8.242,0.762-8.463,1.15c0.221,0.303,3.012,1.063,8.463,1.063c5.257,0,8.04-0.708,8.43-1.106C77.617,66.619,74.834,65.911,69.577,65.911z M78.04,67.061h0.01H78.04z"/><g><path fill="#f1bc19" d="M60.747,62.089v2.977c0,0.818,3.953,1.482,8.829,1.482s8.829-0.663,8.829-1.482v-2.977H60.747z"/><path fill="#472b29" d="M69.577,66.922c-0.942,0-9.204-0.052-9.204-1.856v-2.977c0-0.207,0.168-0.375,0.375-0.375h17.658c0.207,0,0.375,0.168,0.375,0.375v2.977C78.781,66.871,70.519,66.922,69.577,66.922z M61.123,62.464v2.602c0.212,0.346,3.003,1.106,8.454,1.106s8.242-0.761,8.463-1.149l-0.008-2.559H61.123z"/><g><path fill="#ffd683" d="M69.576 60.614A8.829 1.482 0 1 0 69.576 63.577999999999996A8.829 1.482 0 1 0 69.576 60.614Z"/><path fill="#472b29" d="M69.577,63.953c-0.942,0-9.204-0.052-9.204-1.857c0-1.805,8.262-1.856,9.204-1.856s9.204,0.052,9.204,1.856C78.781,63.901,70.519,63.953,69.577,63.953z M69.577,60.989c-5.451,0-8.242,0.761-8.463,1.149c0.221,0.303,3.011,1.064,8.463,1.064c5.259,0,8.041-0.708,8.43-1.107C77.617,61.697,74.834,60.989,69.577,60.989z M78.04,62.138h0.01H78.04z"/></g></g><g><path fill="#f1bc19" d="M60.747,57.397v2.977c0,0.818,3.953,1.482,8.829,1.482s8.829-0.663,8.829-1.482v-2.977H60.747z"/><path fill="#472b29" d="M69.577,62.231c-0.942,0-9.204-0.052-9.204-1.857v-2.977c0-0.207,0.168-0.375,0.375-0.375h17.658c0.207,0,0.375,0.168,0.375,0.375v2.977C78.781,62.179,70.519,62.231,69.577,62.231z M61.123,57.772v2.602c0.212,0.346,3.002,1.107,8.454,1.107s8.242-0.762,8.463-1.15l-0.008-2.559H61.123z"/><g><path fill="#ffd683" d="M69.576 55.922000000000004A8.829 1.482 0 1 0 69.576 58.886A8.829 1.482 0 1 0 69.576 55.922000000000004Z"/><path fill="#472b29" d="M69.577,59.26c-0.942,0-9.204-0.052-9.204-1.856c0-1.806,8.262-1.857,9.204-1.857s9.204,0.052,9.204,1.857C78.781,59.209,70.519,59.26,69.577,59.26z M69.577,56.296c-5.451,0-8.242,0.762-8.463,1.15c0.221,0.303,3.012,1.063,8.463,1.063c5.257,0,8.04-0.708,8.43-1.106C77.617,57.004,74.834,56.296,69.577,56.296z M78.04,57.447h0.01H78.04z"/></g></g><g><path fill="#f1bc19" d="M69.084,45.405v2.977c0,0.818,3.953,1.482,8.829,1.482s8.829-0.663,8.829-1.482v-2.977H69.084z"/><path fill="#472b29" d="M77.913,50.239c-0.942,0-9.204-0.052-9.204-1.856v-2.978c0-0.207,0.168-0.375,0.375-0.375h17.658c0.207,0,0.375,0.168,0.375,0.375v2.978C87.117,50.187,78.855,50.239,77.913,50.239z M69.459,45.78v2.603c0.212,0.346,3.003,1.106,8.454,1.106s8.242-0.761,8.463-1.149l-0.008-2.56H69.459z"/><g><path fill="#ffd683" d="M77.913 43.93A8.829 1.482 0 1 0 77.913 46.894A8.829 1.482 0 1 0 77.913 43.93Z"/><path fill="#472b29" d="M77.913,47.269c-0.942,0-9.204-0.052-9.204-1.857c0-1.805,8.262-1.856,9.204-1.856s9.204,0.052,9.204,1.856C87.117,47.217,78.855,47.269,77.913,47.269z M77.913,44.305c-5.451,0-8.242,0.761-8.463,1.149c0.221,0.303,3.012,1.064,8.463,1.064c5.258,0,8.04-0.708,8.43-1.107C85.953,45.013,83.17,44.305,77.913,44.305z M86.376,45.455h0.01H86.376z"/></g></g><g><path fill="#f1bc19" d="M69.084,40.485v2.977c0,0.818,3.953,1.482,8.829,1.482c4.876,0,8.829-0.663,8.829-1.482v-2.977H69.084z"/><path fill="#472b29" d="M77.913,45.318c-0.942,0-9.204-0.052-9.204-1.856v-2.977c0-0.207,0.168-0.375,0.375-0.375h17.658c0.207,0,0.375,0.168,0.375,0.375v2.977C87.117,45.266,78.855,45.318,77.913,45.318z M69.459,40.86v2.602c0.212,0.346,3.003,1.106,8.454,1.106s8.242-0.761,8.463-1.149l-0.008-2.559H69.459z"/><g><path fill="#ffd683" d="M77.913 39.009A8.829 1.482 0 1 0 77.913 41.973A8.829 1.482 0 1 0 77.913 39.009Z"/><path fill="#472b29" d="M77.913,42.348c-0.942,0-9.204-0.052-9.204-1.857c0-1.805,8.262-1.856,9.204-1.856s9.204,0.052,9.204,1.856C87.117,42.296,78.855,42.348,77.913,42.348z M77.913,39.384c-5.451,0-8.242,0.761-8.463,1.149c0.221,0.303,3.012,1.064,8.463,1.064c5.258,0,8.04-0.708,8.43-1.107C85.953,40.092,83.17,39.384,77.913,39.384z M86.376,40.534h0.01H86.376z"/></g></g></svg>