<svg xmlns="http://www.w3.org/2000/svg" viewBox="0 0 100 100"><path fill="#c8ede6" d="M87.193,56.007c0.3-0.616,0.566-1.264,0.796-1.943c2.633-7.77-1.349-17.078-9.733-19.325c-0.906-11.384-8.906-19.193-17.941-20.526C49.974,12.689,40.5,19.259,37.349,29.7c-3.799-1.346-7.501-1.182-10.99,0.857c-1.583,0.732-3.031,1.812-4.33,3.233c-1.907,2.086-3.147,4.719-3.652,7.495c-0.748,0.118-1.483,0.236-2.176,0.484c-4.04,1.449-6.589,4.431-7.288,8.923c-0.435,2.797,0.443,5.587,0.933,6.714c1.935,4.455,6.422,6.98,10.981,6.312c0.227-0.033,0.557,0.069,0.752,0.233c0.241,7.12,3.698,13.417,8.884,17.014c8.321,5.772,19.027,3.994,25.781-3.921c2.894,2.96,6.338,4.398,10.384,3.876c4.023-0.519,7.147-2.739,9.426-6.349c1.053,0.283,2.051,0.691,3.083,0.804c4.042,0.442,7.297-1.184,9.732-4.8c0.083-0.124,0.203-0.219,0.306-0.328c0.348-0.798,0.696-1.596,1.044-2.394c0.155-1.211,0.429-2.423,0.443-3.632C90.701,60.965,89.37,57.997,87.193,56.007z"/><path fill="#fdfcef" d="M39.296,66.38c0,0,11.691,0,11.762,0c2.7,0,4.888-2.189,4.888-4.889c0-2.355-1.666-4.321-3.884-4.784c0.026-0.206,0.043-0.415,0.043-0.628c0-2.796-2.267-5.063-5.063-5.063c-1.651,0-3.113,0.794-4.037,2.017c-0.236-3.113-3.017-5.514-6.27-5.116c-2.379,0.291-4.346,2.13-4.784,4.486c-0.14,0.756-0.126,1.489,0.014,2.177c-0.638-0.687-1.546-1.119-2.557-1.119c-1.85,0-3.361,1.441-3.48,3.261c-0.84-0.186-1.754-0.174-2.717,0.188c-1.84,0.691-3.15,2.423-3.227,4.387c-0.109,2.789,2.12,5.085,4.885,5.085c0.21,0,0.948,0,1.118,0H36.14"/><path fill="#472b29" d="M51.058,66.88H39.296c-0.276,0-0.5-0.224-0.5-0.5s0.224-0.5,0.5-0.5h11.762c2.42,0,4.389-1.969,4.389-4.388c0-2.067-1.466-3.873-3.486-4.295c-0.254-0.053-0.426-0.292-0.394-0.55c0.022-0.186,0.039-0.375,0.039-0.567c0-2.516-2.047-4.563-4.563-4.563c-1.438,0-2.765,0.663-3.639,1.819c-0.124,0.165-0.343,0.236-0.539,0.178c-0.2-0.059-0.342-0.234-0.358-0.441c-0.104-1.377-0.778-2.671-1.85-3.549c-1.083-0.887-2.452-1.28-3.86-1.109c-2.165,0.265-3.955,1.943-4.353,4.081c-0.124,0.667-0.12,1.335,0.013,1.987c0.044,0.22-0.062,0.442-0.262,0.544c-0.197,0.103-0.442,0.061-0.595-0.104c-0.575-0.619-1.353-0.96-2.19-0.96c-1.568,0-2.878,1.227-2.98,2.794c-0.01,0.146-0.082,0.28-0.199,0.367c-0.116,0.087-0.266,0.118-0.408,0.088c-0.841-0.187-1.637-0.131-2.433,0.167c-1.669,0.626-2.836,2.209-2.903,3.938c-0.047,1.207,0.387,2.35,1.222,3.218c0.835,0.869,1.959,1.347,3.163,1.347h11.27c0.276,0,0.5,0.224,0.5,0.5s-0.224,0.5-0.5,0.5H24.87c-1.479,0-2.858-0.587-3.884-1.653s-1.559-2.469-1.501-3.951c0.084-2.126,1.511-4.069,3.552-4.835c0.801-0.3,1.627-0.398,2.468-0.299c0.377-1.822,1.997-3.182,3.904-3.182c0.685,0,1.354,0.18,1.944,0.51c-0.001-0.385,0.035-0.772,0.107-1.159c0.476-2.562,2.619-4.573,5.214-4.89c1.686-0.208,3.32,0.266,4.615,1.328c1.004,0.823,1.717,1.951,2.038,3.193c1.013-0.916,2.319-1.426,3.714-1.426c3.067,0,5.563,2.496,5.563,5.563c0,0.083-0.002,0.166-0.007,0.249c2.254,0.672,3.848,2.777,3.848,5.164C56.447,64.463,54.03,66.88,51.058,66.88z"/><path fill="#fdfcef" d="M36.463,55.611c-1.808-0.119-3.365,1.13-3.476,2.789c-0.014,0.206-0.005,0.409,0.025,0.606c-0.349-0.394-0.865-0.661-1.458-0.7c-1.085-0.071-2.022,0.645-2.158,1.62c-0.197-0.054-0.403-0.09-0.616-0.104c-1.582-0.104-2.944,0.989-3.042,2.441"/><path fill="#472b29" d="M25.739,62.513c-0.006,0-0.011,0-0.017,0c-0.138-0.009-0.242-0.128-0.232-0.266c0.105-1.588,1.594-2.787,3.307-2.674c0.136,0.009,0.272,0.027,0.409,0.053c0.273-0.968,1.251-1.634,2.365-1.568c0.425,0.028,0.823,0.16,1.163,0.382c0.001-0.018,0.002-0.037,0.004-0.055c0.12-1.794,1.804-3.143,3.742-3.022c0.138,0.009,0.242,0.128,0.232,0.266c-0.008,0.137-0.103,0.253-0.266,0.233c-1.658-0.101-3.108,1.038-3.211,2.556c-0.012,0.186-0.004,0.372,0.023,0.552c0.017,0.11-0.041,0.217-0.141,0.265c-0.102,0.046-0.221,0.022-0.294-0.061c-0.317-0.359-0.786-0.583-1.287-0.616c-0.93-0.067-1.775,0.555-1.893,1.405c-0.011,0.071-0.051,0.134-0.11,0.174c-0.061,0.04-0.136,0.051-0.203,0.033c-0.189-0.051-0.38-0.084-0.568-0.096c-1.446-0.106-2.687,0.896-2.775,2.208C25.979,62.411,25.87,62.513,25.739,62.513z"/><path fill="#fdfcef" d="M53.037,57.28c-1.699-0.801-3.664-0.234-4.389,1.267c-0.09,0.186-0.157,0.379-0.201,0.574"/><path fill="#472b29" d="M48.448,59.37c-0.019,0-0.037-0.002-0.057-0.006c-0.134-0.031-0.218-0.166-0.187-0.3c0.05-0.217,0.123-0.428,0.219-0.626c0.783-1.621,2.899-2.243,4.721-1.384c0.125,0.059,0.179,0.208,0.12,0.333c-0.06,0.126-0.21,0.177-0.333,0.12c-1.572-0.74-3.393-0.226-4.057,1.15c-0.08,0.165-0.142,0.34-0.184,0.521C48.664,59.292,48.562,59.37,48.448,59.37z"/><path fill="#fff" d="M16.858 48.043H6.828c-.276 0-.5-.224-.5-.5s.224-.5.5-.5h10.03c.276 0 .5.224.5.5S17.134 48.043 16.858 48.043zM19.74 48.043h-1.446c-.276 0-.5-.224-.5-.5s.224-.5.5-.5h1.446c.276 0 .5.224.5.5S20.016 48.043 19.74 48.043zM23.794 48.043h-2.546c-.276 0-.5-.224-.5-.5s.224-.5.5-.5h2.546c.276 0 .5.224.5.5S24.071 48.043 23.794 48.043zM23.794 49.908h-9.616c-.276 0-.5-.224-.5-.5s.224-.5.5-.5h9.616c.276 0 .5.224.5.5S24.071 49.908 23.794 49.908zM12.446 49.908h-.58c-.276 0-.5-.224-.5-.5s.224-.5.5-.5h.58c.276 0 .5.224.5.5S12.722 49.908 12.446 49.908zM10.07 49.908H8.613c-.276 0-.5-.224-.5-.5s.224-.5.5-.5h1.457c.276 0 .5.224.5.5S10.346 49.908 10.07 49.908zM19.205 46.179h-5.027c-.276 0-.5-.224-.5-.5s.224-.5.5-.5h5.027c.276 0 .5.224.5.5S19.482 46.179 19.205 46.179zM19.205 44.313h-1.258c-.276 0-.5-.224-.5-.5s.224-.5.5-.5h1.258c.276 0 .5.224.5.5S19.482 44.313 19.205 44.313zM15.936 51.773h-1.758c-.276 0-.5-.224-.5-.5s.224-.5.5-.5h1.758c.276 0 .5.224.5.5S16.212 51.773 15.936 51.773zM74.072 32.115H64.04c-.276 0-.5-.224-.5-.5s.224-.5.5-.5h10.031c.276 0 .5.224.5.5S74.348 32.115 74.072 32.115zM76.953 32.115h-1.446c-.276 0-.5-.224-.5-.5s.224-.5.5-.5h1.446c.276 0 .5.224.5.5S77.229 32.115 76.953 32.115zM81.007 32.115h-2.546c-.276 0-.5-.224-.5-.5s.224-.5.5-.5h2.546c.276 0 .5.224.5.5S81.284 32.115 81.007 32.115zM78.981 28.386h-9.616c-.276 0-.5-.224-.5-.5s.224-.5.5-.5h9.616c.276 0 .5.224.5.5S79.257 28.386 78.981 28.386zM67.633 28.386h-.58c-.276 0-.5-.224-.5-.5s.224-.5.5-.5h.58c.276 0 .5.224.5.5S67.91 28.386 67.633 28.386zM65.256 28.386H63.8c-.276 0-.5-.224-.5-.5s.224-.5.5-.5h1.456c.276 0 .5.224.5.5S65.533 28.386 65.256 28.386zM76.418 30.25h-5.027c-.276 0-.5-.224-.5-.5s.224-.5.5-.5h5.027c.276 0 .5.224.5.5S76.695 30.25 76.418 30.25z"/><path fill="#fff" d="M76.418 28.386h-1.258c-.276 0-.5-.224-.5-.5s.224-.5.5-.5h1.258c.276 0 .5.224.5.5S76.695 28.386 76.418 28.386zM69.935 30.25h-1.758c-.276 0-.5-.224-.5-.5s.224-.5.5-.5h1.758c.276 0 .5.224.5.5S70.211 30.25 69.935 30.25z"/><path fill="#8889b9" d="M57.435,69.007H41.636c-3.018,0-5.488-2.469-5.488-5.488V39.511c0-3.018,2.469-5.488,5.488-5.488h15.091c3.018,0,5.488,2.469,5.488,5.488v22.36"/><path fill="#472b29" d="M50.576,69.53h-8.939c-3.412,0-6.188-2.776-6.188-6.188V39.333c0-3.412,2.776-6.188,6.188-6.188h15.091c3.412,0,6.188,2.776,6.188,6.188c0,0.387-0.313,0.7-0.7,0.7s-0.7-0.313-0.7-0.7c0-2.64-2.147-4.788-4.787-4.788H41.636c-2.641,0-4.788,2.147-4.788,4.788v24.008c0,2.64,2.147,4.788,4.788,4.788h8.939c0.387,0,0.7,0.313,0.7,0.7S50.962,69.53,50.576,69.53z"/><path fill="#472b29" d="M59.814,40.051H38.549c-0.207,0-0.375-0.168-0.375-0.375s0.168-0.375,0.375-0.375h21.265c0.207,0,0.375,0.168,0.375,0.375S60.021,40.051,59.814,40.051z"/><path fill="#fdfcee" d="M40.264 39.333L40.264 25.205 43.231 27.431 46.062 25.205 49.146 27.431 52.23 25.205 55.061 27.431 58.099 25.205 58.099 39.333"/><path fill="#472b29" d="M58.099,40.034c-0.387,0-0.7-0.313-0.7-0.7V26.586l-1.923,1.41c-0.255,0.186-0.6,0.18-0.847-0.014l-2.417-1.9l-2.657,1.917c-0.244,0.176-0.573,0.176-0.819,0l-2.656-1.917l-2.416,1.9c-0.248,0.196-0.599,0.201-0.853,0.01l-1.847-1.386v12.728c0,0.387-0.313,0.7-0.7,0.7s-0.7-0.313-0.7-0.7V25.205c0-0.265,0.15-0.507,0.388-0.626c0.236-0.119,0.521-0.093,0.732,0.066l2.537,1.903l2.408-1.894c0.246-0.193,0.589-0.201,0.843-0.017l2.674,1.93l2.676-1.931c0.252-0.183,0.596-0.175,0.842,0.018l2.413,1.897l2.608-1.912c0.214-0.156,0.496-0.178,0.73-0.06c0.235,0.12,0.384,0.361,0.384,0.625v14.128C58.799,39.72,58.486,40.034,58.099,40.034z"/><path fill="#edf7f5" d="M41.293 42.42H57.07V48.594H41.293z"/><path fill="#472b29" d="M57.07 48.919H41.293c-.18 0-.325-.146-.325-.325V42.42c0-.18.146-.325.325-.325H57.07c.18 0 .325.146.325.325v6.173C57.395 48.773 57.249 48.919 57.07 48.919zM41.619 48.268h15.126v-5.523H41.619V48.268zM50.896 53.084h-3.429c-.207 0-.375-.168-.375-.375s.168-.375.375-.375h3.429c.207 0 .375.168.375.375S51.103 53.084 50.896 53.084zM44.723 53.084h-3.43c-.207 0-.375-.168-.375-.375s.168-.375.375-.375h3.43c.207 0 .375.168.375.375S44.93 53.084 44.723 53.084zM57.07 53.084h-3.43c-.207 0-.375-.168-.375-.375s.168-.375.375-.375h3.43c.207 0 .375.168.375.375S57.277 53.084 57.07 53.084zM50.896 57.201h-3.429c-.207 0-.375-.168-.375-.375s.168-.375.375-.375h3.429c.207 0 .375.168.375.375S51.103 57.201 50.896 57.201zM44.723 57.2h-3.43c-.207 0-.375-.168-.375-.375s.168-.375.375-.375h3.43c.207 0 .375.168.375.375S44.93 57.2 44.723 57.2zM57.07 57.201h-3.43c-.207 0-.375-.168-.375-.375s.168-.375.375-.375h3.43c.207 0 .375.168.375.375S57.277 57.201 57.07 57.201zM50.896 61.316h-3.43c-.207 0-.375-.168-.375-.375s.168-.375.375-.375h3.43c.207 0 .375.168.375.375S51.103 61.316 50.896 61.316zM44.723 61.316h-3.43c-.207 0-.375-.168-.375-.375s.168-.375.375-.375h3.43c.207 0 .375.168.375.375S44.93 61.316 44.723 61.316zM57.07 61.316h-3.43c-.207 0-.375-.168-.375-.375s.168-.375.375-.375h3.43c.207 0 .375.168.375.375S57.277 61.316 57.07 61.316zM55.698 31.77h-8.473c-.18 0-.325-.146-.325-.325s.146-.325.325-.325h8.473c.18 0 .325.146.325.325S55.877 31.77 55.698 31.77zM45.138 31.77h-2.474c-.18 0-.325-.146-.325-.325s.146-.325.325-.325h2.474c.18 0 .325.146.325.325S45.318 31.77 45.138 31.77zM50.21 34.537L50.21 34.537l-7.547-.023c-.18-.001-.324-.146-.324-.326.001-.179.146-.324.325-.324h.001l7.546.023c.18.001.324.146.324.326C50.535 34.392 50.389 34.537 50.21 34.537z"/><g><path fill="#f1bc19" d="M58.342,66.649v2.775c0,0.763,3.684,1.381,8.229,1.381s8.229-0.618,8.229-1.381v-2.775H58.342z"/><path fill="#472b29" d="M66.571,71.18c-0.881,0-8.604-0.049-8.604-1.756v-2.774c0-0.207,0.168-0.375,0.375-0.375H74.8c0.207,0,0.375,0.168,0.375,0.375v2.774C75.175,71.13,67.452,71.18,66.571,71.18z M58.717,67.024v2.399c0.212,0.305,2.825,1.006,7.854,1.006c5.029,0,7.643-0.702,7.866-1.06l-0.01-2.346H58.717z"/><path fill="#ffd683" d="M66.571 65.274A8.229 1.381 0 1 0 66.571 68.036A8.229 1.381 0 1 0 66.571 65.274Z"/><path fill="#472b29" d="M66.571,68.411c-0.881,0-8.604-0.049-8.604-1.756c0-1.707,7.723-1.756,8.604-1.756s8.604,0.049,8.604,1.756C75.175,68.362,67.452,68.411,66.571,68.411z M58.753,66.655c0.429,0.37,3.027,1.006,7.817,1.006c4.791,0,7.39-0.636,7.818-1.006c-0.429-0.37-3.027-1.006-7.818-1.006C61.781,65.649,59.182,66.286,58.753,66.655z M74.437,66.708h0.01H74.437z"/><path fill="#f1bc19" d="M58.342,62.063v2.775c0,0.763,3.684,1.381,8.229,1.381S74.8,65.6,74.8,64.837v-2.775H58.342z"/><path fill="#472b29" d="M66.571,66.593c-0.881,0-8.604-0.049-8.604-1.756v-2.774c0-0.207,0.168-0.375,0.375-0.375H74.8c0.207,0,0.375,0.168,0.375,0.375v2.774C75.175,66.544,67.452,66.593,66.571,66.593z M58.717,62.438v2.399c0.212,0.305,2.825,1.006,7.854,1.006c5.029,0,7.643-0.701,7.866-1.059l-0.01-2.346H58.717z"/><path fill="#ffd683" d="M66.571 60.688A8.229 1.381 0 1 0 66.571 63.45A8.229 1.381 0 1 0 66.571 60.688Z"/><path fill="#472b29" d="M66.571,63.825c-0.881,0-8.604-0.049-8.604-1.756c0-1.707,7.723-1.756,8.604-1.756s8.604,0.049,8.604,1.756C75.175,63.776,67.452,63.825,66.571,63.825z M58.753,62.069c0.429,0.37,3.027,1.006,7.817,1.006c4.791,0,7.39-0.637,7.818-1.006c-0.429-0.37-3.027-1.006-7.818-1.006C61.781,61.063,59.182,61.699,58.753,62.069z M74.437,62.122h0.01H74.437z"/><path fill="#f1bc19" d="M58.342,57.477v2.775c0,0.763,3.684,1.381,8.229,1.381s8.229-0.618,8.229-1.381v-2.775H58.342z"/><path fill="#472b29" d="M66.571,62.007c-0.881,0-8.604-0.049-8.604-1.756v-2.774c0-0.207,0.168-0.375,0.375-0.375H74.8c0.207,0,0.375,0.168,0.375,0.375v2.774C75.175,61.958,67.452,62.007,66.571,62.007z M58.717,57.851v2.399c0.212,0.305,2.825,1.006,7.854,1.006c5.029,0,7.643-0.701,7.866-1.059l-0.01-2.347H58.717z"/><g><path fill="#ffd683" d="M66.571 56.102A8.229 1.381 0 1 0 66.571 58.864A8.229 1.381 0 1 0 66.571 56.102Z"/><path fill="#472b29" d="M66.571,59.239c-0.881,0-8.604-0.049-8.604-1.756c0-1.707,7.723-1.756,8.604-1.756s8.604,0.049,8.604,1.756C75.175,59.189,67.452,59.239,66.571,59.239z M58.753,57.483c0.429,0.37,3.027,1.006,7.817,1.006c4.791,0,7.39-0.636,7.818-1.006c-0.429-0.37-3.027-1.006-7.818-1.006C61.781,56.476,59.182,57.113,58.753,57.483z M74.437,57.536h0.01H74.437z"/></g><g><path fill="#f1bc19" d="M58.342,52.89v2.775c0,0.763,3.684,1.381,8.229,1.381s8.229-0.618,8.229-1.381V52.89H58.342z"/><path fill="#472b29" d="M66.571,57.421c-0.881,0-8.604-0.049-8.604-1.756V52.89c0-0.207,0.168-0.375,0.375-0.375H74.8c0.207,0,0.375,0.168,0.375,0.375v2.774C75.175,57.372,67.452,57.421,66.571,57.421z M58.717,53.265v2.399c0.212,0.305,2.825,1.006,7.854,1.006c5.029,0,7.643-0.702,7.866-1.06l-0.01-2.346H58.717z"/><g><path fill="#ffd683" d="M66.571 51.516A8.229 1.381 0 1 0 66.571 54.278A8.229 1.381 0 1 0 66.571 51.516Z"/><path fill="#472b29" d="M66.571,54.653c-0.881,0-8.604-0.049-8.604-1.756c0-1.707,7.723-1.756,8.604-1.756s8.604,0.049,8.604,1.756C75.175,54.603,67.452,54.653,66.571,54.653z M58.753,52.896c0.428,0.37,3.026,1.006,7.817,1.006c4.792,0,7.391-0.637,7.818-1.006c-0.429-0.37-3.027-1.006-7.818-1.006C61.781,51.89,59.182,52.527,58.753,52.896z M74.437,52.95h0.01H74.437z"/></g></g><g><path fill="#f1bc19" d="M50.573,68.441v2.775c0,0.763,3.684,1.381,8.229,1.381s8.229-0.618,8.229-1.381v-2.775H50.573z"/><path fill="#472b29" d="M58.801,72.972c-0.881,0-8.604-0.049-8.604-1.756v-2.775c0-0.207,0.168-0.375,0.375-0.375h16.458c0.207,0,0.375,0.168,0.375,0.375v2.775C67.406,72.922,59.682,72.972,58.801,72.972z M50.948,68.816v2.4c0.212,0.305,2.825,1.006,7.854,1.006c5.029,0,7.643-0.701,7.866-1.059l-0.01-2.347H50.948z"/><g><path fill="#ffd683" d="M58.802 67.066A8.229 1.381 0 1 0 58.802 69.828A8.229 1.381 0 1 0 58.802 67.066Z"/><path fill="#472b29" d="M58.801,70.203c-0.881,0-8.604-0.049-8.604-1.756c0-1.707,7.723-1.756,8.604-1.756s8.604,0.049,8.604,1.756C67.406,70.154,59.682,70.203,58.801,70.203z M50.984,68.447c0.429,0.37,3.027,1.006,7.817,1.006c4.791,0,7.39-0.637,7.818-1.006c-0.429-0.37-3.027-1.006-7.818-1.006C54.011,67.441,51.412,68.077,50.984,68.447z M66.667,68.5h0.01H66.667z"/></g></g><g><path fill="#f1bc19" d="M50.573,63.854v2.775c0,0.763,3.684,1.381,8.229,1.381s8.229-0.618,8.229-1.381v-2.775H50.573z"/><path fill="#472b29" d="M58.801,68.384c-0.881,0-8.604-0.049-8.604-1.756v-2.774c0-0.207,0.168-0.375,0.375-0.375h16.458c0.207,0,0.375,0.168,0.375,0.375v2.774C67.406,68.335,59.682,68.384,58.801,68.384z M50.948,64.229v2.399c0.212,0.305,2.825,1.006,7.854,1.006c5.029,0,7.643-0.701,7.866-1.059l-0.01-2.346H50.948z"/><g><path fill="#ffd683" d="M58.802 62.479A8.229 1.381 0 1 0 58.802 65.241A8.229 1.381 0 1 0 58.802 62.479Z"/><path fill="#472b29" d="M58.801,65.616c-0.881,0-8.604-0.049-8.604-1.756c0-1.707,7.723-1.756,8.604-1.756s8.604,0.049,8.604,1.756C67.406,65.567,59.682,65.616,58.801,65.616z M50.984,63.86c0.429,0.37,3.027,1.006,7.817,1.006c4.791,0,7.39-0.637,7.818-1.006c-0.429-0.37-3.027-1.006-7.818-1.006C54.011,62.854,51.412,63.49,50.984,63.86z M66.667,63.913h0.01H66.667z"/></g></g><g><path fill="#f1bc19" d="M50.573,59.481v2.775c0,0.763,3.684,1.381,8.229,1.381s8.229-0.618,8.229-1.381v-2.775H50.573z"/><path fill="#472b29" d="M58.801,64.011c-0.881,0-8.604-0.049-8.604-1.756v-2.774c0-0.207,0.168-0.375,0.375-0.375h16.458c0.207,0,0.375,0.168,0.375,0.375v2.774C67.406,63.962,59.682,64.011,58.801,64.011z M50.948,59.856v2.399c0.212,0.305,2.825,1.006,7.854,1.006c5.029,0,7.643-0.701,7.866-1.059l-0.01-2.346H50.948z"/><g><path fill="#ffd683" d="M58.802 58.106A8.229 1.381 0 1 0 58.802 60.868A8.229 1.381 0 1 0 58.802 58.106Z"/><path fill="#472b29" d="M58.801,61.243c-0.881,0-8.604-0.049-8.604-1.756c0-1.707,7.723-1.756,8.604-1.756s8.604,0.049,8.604,1.756C67.406,61.194,59.682,61.243,58.801,61.243z M50.984,59.487c0.429,0.37,3.027,1.006,7.817,1.006c4.791,0,7.39-0.637,7.818-1.006c-0.429-0.37-3.027-1.006-7.818-1.006C54.011,58.481,51.412,59.117,50.984,59.487z M66.667,59.54h0.01H66.667z"/></g></g><g><path fill="#f1bc19" d="M58.342,48.304v2.775c0,0.763,3.684,1.381,8.229,1.381s8.229-0.618,8.229-1.381v-2.775H58.342z"/><path fill="#472b29" d="M66.571,52.835c-0.881,0-8.604-0.049-8.604-1.756v-2.775c0-0.207,0.168-0.375,0.375-0.375H74.8c0.207,0,0.375,0.168,0.375,0.375v2.775C75.175,52.786,67.452,52.835,66.571,52.835z M58.717,48.679v2.4c0.212,0.305,2.825,1.006,7.854,1.006c5.029,0,7.643-0.701,7.866-1.059l-0.01-2.347H58.717z"/><g><path fill="#ffd683" d="M66.571 46.929A8.229 1.381 0 1 0 66.571 49.691A8.229 1.381 0 1 0 66.571 46.929Z"/><path fill="#472b29" d="M66.571,50.066c-0.881,0-8.604-0.049-8.604-1.756s7.723-1.756,8.604-1.756s8.604,0.049,8.604,1.756S67.452,50.066,66.571,50.066z M58.753,48.31c0.429,0.37,3.027,1.006,7.817,1.006c4.791,0,7.39-0.636,7.818-1.006c-0.429-0.37-3.027-1.006-7.818-1.006C61.781,47.305,59.182,47.941,58.753,48.31z M74.437,48.364h0.01H74.437z"/></g></g><g><path fill="#f1bc19" d="M58.342,43.718v2.775c0,0.763,3.684,1.381,8.229,1.381s8.229-0.618,8.229-1.381v-2.775H58.342z"/><path fill="#472b29" d="M66.571,48.249c-0.881,0-8.604-0.049-8.604-1.756v-2.774c0-0.207,0.168-0.375,0.375-0.375H74.8c0.207,0,0.375,0.168,0.375,0.375v2.774C75.175,48.2,67.452,48.249,66.571,48.249z M58.717,44.093v2.399c0.212,0.305,2.825,1.006,7.854,1.006c5.029,0,7.643-0.702,7.866-1.06l-0.01-2.346H58.717z"/><g><path fill="#ffd683" d="M66.571 42.342999999999996A8.229 1.381 0 1 0 66.571 45.105A8.229 1.381 0 1 0 66.571 42.342999999999996Z"/><path fill="#472b29" d="M66.571,45.48c-0.881,0-8.604-0.049-8.604-1.756c0-1.707,7.723-1.756,8.604-1.756s8.604,0.049,8.604,1.756C75.175,45.431,67.452,45.48,66.571,45.48z M58.753,43.724c0.429,0.37,3.027,1.006,7.817,1.006c4.791,0,7.39-0.636,7.818-1.006c-0.428-0.37-3.026-1.006-7.818-1.006C61.78,42.718,59.181,43.355,58.753,43.724z M74.437,43.777h0.01H74.437z"/></g></g></g><path fill="#472b29" d="M52.554 34.525h-1.093c-.18 0-.325-.146-.325-.325s.146-.325.325-.325h1.093c.18 0 .325.146.325.325S52.734 34.525 52.554 34.525zM41.293 46.334c-.038 0-.077-.01-.112-.03-.107-.062-.145-.2-.082-.308l2.178-3.766c.062-.108.2-.144.307-.082.107.062.145.2.082.308l-2.178 3.766C41.447 46.294 41.37 46.334 41.293 46.334zM41.752 48.835c-.038 0-.077-.01-.112-.03-.107-.062-.145-.2-.082-.308l3.579-6.19c.062-.107.2-.144.307-.082.107.062.145.2.082.308l-3.579 6.19C41.906 48.795 41.829 48.835 41.752 48.835zM43.887 48.835c-.038 0-.077-.01-.112-.03-.107-.062-.145-.2-.082-.308l3.579-6.19c.061-.107.2-.144.307-.082.107.062.145.2.082.308l-3.579 6.19C44.04 48.795 43.964 48.835 43.887 48.835zM46.15 48.835c-.038 0-.077-.01-.112-.03-.108-.062-.145-.2-.082-.308l3.58-6.19c.061-.107.2-.144.307-.082.108.062.145.2.082.308l-3.58 6.19C46.303 48.795 46.227 48.835 46.15 48.835zM49.676 46.334c-.038 0-.077-.01-.112-.03-.107-.062-.145-.2-.082-.308l2.133-3.688c.062-.107.201-.144.307-.082.107.062.145.2.082.308l-2.133 3.688C49.829 46.293 49.753 46.334 49.676 46.334z"/><g><path fill="#fdfcef" d="M79.631,72.528c1.883,0,3.517,0,3.54,0c2.11,0,3.821-1.674,3.821-3.739c0-1.802-1.302-3.305-3.035-3.66c0.02-0.158,0.034-0.317,0.034-0.48c0-2.139-1.772-3.873-3.957-3.873c-1.29,0-2.433,0.607-3.155,1.543c-0.185-2.381-2.358-4.218-4.9-3.913c-1.859,0.223-3.397,1.629-3.739,3.431c-0.11,0.578-0.098,1.139,0.011,1.665c-0.498-0.525-1.208-0.856-1.998-0.856c-1.446,0-2.627,1.102-2.72,2.494c-0.657-0.142-1.371-0.133-2.123,0.143c-1.438,0.528-2.462,1.853-2.522,3.356c-0.085,2.133,1.657,3.889,3.818,3.889c0.164,0,0.741,0,0.874,0h7.934 M73.154,72.528h0.36"/><path fill="#472b29" d="M83.171,73.028h-3.54c-0.276,0-0.5-0.224-0.5-0.5s0.224-0.5,0.5-0.5h3.54c1.831,0,3.32-1.453,3.32-3.239c0-1.524-1.108-2.857-2.636-3.17c-0.257-0.052-0.429-0.294-0.396-0.554c0.018-0.137,0.03-0.275,0.03-0.416c0-1.86-1.551-3.373-3.457-3.373c-1.093,0-2.099,0.491-2.76,1.348c-0.126,0.164-0.343,0.233-0.538,0.173c-0.198-0.059-0.34-0.234-0.355-0.44c-0.08-1.02-0.566-1.944-1.371-2.604c-0.828-0.68-1.887-0.984-2.972-0.852c-1.646,0.197-3.006,1.442-3.308,3.028c-0.094,0.494-0.09,0.989,0.01,1.471c0.046,0.219-0.06,0.441-0.258,0.544c-0.196,0.104-0.439,0.064-0.594-0.099c-0.43-0.452-1.011-0.701-1.636-0.701c-1.169,0-2.146,0.891-2.222,2.028c-0.01,0.145-0.082,0.278-0.198,0.366c-0.117,0.087-0.264,0.12-0.406,0.089c-0.641-0.139-1.242-0.098-1.846,0.124c-1.262,0.464-2.144,1.632-2.193,2.906c-0.035,0.875,0.282,1.708,0.894,2.344c0.635,0.661,1.496,1.025,2.424,1.025h8.808c0.276,0,0.5,0.224,0.5,0.5s-0.224,0.5-0.5,0.5h-8.808c-1.186,0-2.332-0.486-3.146-1.332c-0.802-0.835-1.218-1.928-1.172-3.077c0.066-1.674,1.212-3.203,2.849-3.805c0.612-0.225,1.241-0.305,1.881-0.245c0.345-1.396,1.63-2.424,3.136-2.424c0.492,0,0.976,0.113,1.413,0.323c0.009-0.242,0.036-0.483,0.082-0.726c0.382-2.009,2.098-3.586,4.171-3.834c1.364-0.162,2.685,0.218,3.726,1.072c0.748,0.614,1.278,1.41,1.547,2.302c0.791-0.648,1.785-1.007,2.843-1.007c2.458,0,4.457,1.962,4.457,4.373c0,0.034-0.001,0.068-0.002,0.103c1.765,0.555,3.003,2.188,3.003,4.038C87.492,71.126,85.553,73.028,83.171,73.028z M73.513,73.028h-0.359c-0.276,0-0.5-0.224-0.5-0.5s0.224-0.5,0.5-0.5h0.359c0.276,0,0.5,0.224,0.5,0.5S73.789,73.028,73.513,73.028z"/><path fill="#472b29" d="M81.464,67.225c-0.018,0-0.036-0.002-0.055-0.006c-0.135-0.03-0.22-0.164-0.189-0.299c0.038-0.168,0.095-0.33,0.17-0.48c0.604-1.223,2.273-1.674,3.721-1.006c0.126,0.058,0.181,0.207,0.122,0.332c-0.058,0.125-0.208,0.181-0.331,0.122c-1.206-0.558-2.579-0.209-3.063,0.774c-0.058,0.115-0.102,0.238-0.13,0.367C81.682,67.146,81.578,67.225,81.464,67.225z"/><g><path fill="#472b29" d="M76.305,73.028h-1.107c-0.276,0-0.5-0.224-0.5-0.5s0.224-0.5,0.5-0.5h1.107c0.276,0,0.5,0.224,0.5,0.5S76.581,73.028,76.305,73.028z"/></g></g></svg>