<svg xmlns="http://www.w3.org/2000/svg" viewBox="0 0 100 100"><path fill="#f1bc19" d="M77 12A1 1 0 1 0 77 14A1 1 0 1 0 77 12Z"/><path fill="#e6edb7" d="M50 13A37 37 0 1 0 50 87A37 37 0 1 0 50 13Z"/><path fill="#f1bc19" d="M83 11A4 4 0 1 0 83 19A4 4 0 1 0 83 11Z"/><path fill="#88ae45" d="M87 22A2 2 0 1 0 87 26A2 2 0 1 0 87 22Z"/><path fill="#fbcd59" d="M81 74A2 2 0 1 0 81 78 2 2 0 1 0 81 74zM15 59A4 4 0 1 0 15 67 4 4 0 1 0 15 59z"/><path fill="#88ae45" d="M25 85A2 2 0 1 0 25 89A2 2 0 1 0 25 85Z"/><path fill="#fff" d="M18.5 49A2.5 2.5 0 1 0 18.5 54 2.5 2.5 0 1 0 18.5 49zM79.5 32A1.5 1.5 0 1 0 79.5 35 1.5 1.5 0 1 0 79.5 32z"/><path fill="#fde751" d="M54.7,66.3V38.6c0-1.599,1.332-2.899,2.969-2.899H69.29c1.673,0,3.224,0.952,3.951,2.426 l4.756,9.625c0.198,0.4,0.303,0.849,0.303,1.296v13.62c0,2.003-1.667,3.633-3.716,3.633H54.7z"/><path fill="#472b29" d="M69.29,36.4c1.408,0,2.713,0.799,3.324,2.036l4.756,9.625c0.151,0.305,0.23,0.646,0.23,0.986v13.62 c0,1.618-1.353,2.934-3.016,2.934H55.4v-27c0-1.213,1.018-2.2,2.268-2.2H69.29 M69.29,35H57.668C55.642,35,54,36.612,54,38.6V67 h20.584C77.023,67,79,65.06,79,62.667v-13.62c0-0.557-0.128-1.106-0.375-1.606l-4.756-9.625C73.018,36.093,71.24,35,69.29,35 L69.29,35z"/><path fill="#48bed8" d="M26.7,56.3V31.583c0-1.59,1.293-2.883,2.883-2.883h21.834c1.59,0,2.883,1.293,2.883,2.883V56.3 H26.7z"/><path fill="#472b29" d="M51.417,29.4c1.204,0,2.183,0.979,2.183,2.184V55.6H27.4V31.583c0-1.204,0.979-2.184,2.183-2.184 H51.417 M51.417,28H29.583C27.604,28,26,29.604,26,31.583V57h29V31.583C55,29.604,53.396,28,51.417,28L51.417,28z"/><path fill="#afabd4" d="M28.125,66.3c-0.786,0-1.425-0.639-1.425-1.425V55.7h27.6v10.6H28.125z"/><path fill="#472b29" d="M53.6,56.4v9.2H28.125c-0.4,0-0.725-0.325-0.725-0.725V56.4H53.6 M55,55H26v9.875 C26,66.049,26.951,67,28.125,67H55V55L55,55z"/><path fill="#d6d3c5" d="M40.5 60.7A5.8 5.8 0 1 0 40.5 72.3A5.8 5.8 0 1 0 40.5 60.7Z"/><path fill="#472b29" d="M40.5,61.4c2.812,0,5.1,2.288,5.1,5.1s-2.288,5.1-5.1,5.1s-5.1-2.288-5.1-5.1 S37.688,61.4,40.5,61.4 M40.5,60c-3.59,0-6.5,2.91-6.5,6.5s2.91,6.5,6.5,6.5s6.5-2.91,6.5-6.5S44.09,60,40.5,60L40.5,60z"/><path fill="#d6d3c5" d="M67.5 60.7A5.8 5.8 0 1 0 67.5 72.3A5.8 5.8 0 1 0 67.5 60.7Z"/><path fill="#472b29" d="M67.5,61.4c2.812,0,5.1,2.288,5.1,5.1s-2.288,5.1-5.1,5.1c-2.812,0-5.1-2.288-5.1-5.1 S64.688,61.4,67.5,61.4 M67.5,60c-3.59,0-6.5,2.91-6.5,6.5s2.91,6.5,6.5,6.5s6.5-2.91,6.5-6.5S71.09,60,67.5,60L67.5,60z"/><path fill="#88cdd7" d="M78 48.573L73.389 39.5 63.5 39.5 63.5 52.5 78 52.5z"/><path fill="#472b29" d="M78,53H63.5c-0.276,0-0.5-0.224-0.5-0.5v-13c0-0.276,0.224-0.5,0.5-0.5h9.889 c0.188,0,0.36,0.105,0.445,0.273l4.611,9.073c0.036,0.07,0.055,0.147,0.055,0.227V52.5C78.5,52.776,78.276,53,78,53z M64,52h13.5 v-3.307L73.082,40H64V52z"/><g><path fill="#472b29" d="M67.5 64A2.5 2.5 0 1 0 67.5 69A2.5 2.5 0 1 0 67.5 64Z"/></g><g><path fill="#472b29" d="M40.5 64A2.5 2.5 0 1 0 40.5 69A2.5 2.5 0 1 0 40.5 64Z"/></g><g><path fill="#fffef4" d="M74.799,60.5c-0.957,0-1.736-0.779-1.736-1.736v-0.527c0-0.957,0.779-1.736,1.736-1.736h3.264v4 H74.799z"/><path fill="#472b29" d="M77.562,57v3h-2.764c-0.682,0-1.236-0.554-1.236-1.236v-0.528c0-0.682,0.555-1.236,1.236-1.236 H77.562 M78.562,56h-3.764c-1.235,0-2.236,1.001-2.236,2.236v0.528c0,1.235,1.001,2.236,2.236,2.236h3.764V56L78.562,56z"/></g><g><path fill="#ea4989" d="M26.937,63.5v-4h3.264c0.957,0,1.736,0.779,1.736,1.736v0.527c0,0.957-0.779,1.736-1.736,1.736 H26.937z"/><path fill="#472b29" d="M30.201,60c0.682,0,1.236,0.554,1.236,1.236v0.528c0,0.682-0.554,1.236-1.236,1.236h-2.764v-3 H30.201 M30.201,59h-3.764v5h3.764c1.235,0,2.236-1.001,2.236-2.236v-0.528C32.437,60.001,31.436,59,30.201,59L30.201,59z"/></g><g><path fill="#472b29" d="M51,53h-9.5c-0.276,0-0.5-0.224-0.5-0.5s0.224-0.5,0.5-0.5H50V33.5c0-0.276,0.224-0.5,0.5-0.5 s0.5,0.224,0.5,0.5V53z"/></g><g><path fill="#472b29" d="M38.5,53h-4c-0.276,0-0.5-0.224-0.5-0.5s0.224-0.5,0.5-0.5h4c0.276,0,0.5,0.224,0.5,0.5 S38.776,53,38.5,53z"/></g><g><path fill="#472b29" d="M57.5,45c-0.276,0-0.5-0.224-0.5-0.5v-6c0-0.276,0.224-0.5,0.5-0.5s0.5,0.224,0.5,0.5v6 C58,44.776,57.776,45,57.5,45z"/></g><g><path fill="#472b29" d="M57.5,64c-0.276,0-0.5-0.224-0.5-0.5v-16c0-0.276,0.224-0.5,0.5-0.5s0.5,0.224,0.5,0.5v16 C58,63.776,57.776,64,57.5,64z"/></g><g><path fill="#472b29" d="M32.5,53h-3c-0.276,0-0.5-0.224-0.5-0.5s0.224-0.5,0.5-0.5h3c0.276,0,0.5,0.224,0.5,0.5 S32.776,53,32.5,53z"/></g><g><path fill="#472b29" d="M44.5,34.2h-23c-0.387,0-0.7-0.313-0.7-0.7s0.313-0.7,0.7-0.7h23c0.387,0,0.7,0.313,0.7,0.7 S44.887,34.2,44.5,34.2z"/></g><g><path fill="#472b29" d="M41.5,38.2h-20c-0.387,0-0.7-0.313-0.7-0.7s0.313-0.7,0.7-0.7h20c0.387,0,0.7,0.313,0.7,0.7 S41.887,38.2,41.5,38.2z"/></g><g><path fill="#472b29" d="M39.5,42.2h-18c-0.387,0-0.7-0.313-0.7-0.7s0.313-0.7,0.7-0.7h18c0.387,0,0.7,0.313,0.7,0.7 S39.887,42.2,39.5,42.2z"/></g><g><path fill="#472b29" d="M37.5,46.2h-16c-0.387,0-0.7-0.313-0.7-0.7s0.313-0.7,0.7-0.7h16c0.387,0,0.7,0.313,0.7,0.7 S37.887,46.2,37.5,46.2z"/></g></svg>