<svg xmlns="http://www.w3.org/2000/svg" viewBox="0 0 100 100"><path fill="#f1bc19" d="M77 12A1 1 0 1 0 77 14A1 1 0 1 0 77 12Z"/><path fill="#e4e4f9" d="M50 13A37 37 0 1 0 50 87A37 37 0 1 0 50 13Z"/><path fill="#f1bc19" d="M83 11A4 4 0 1 0 83 19A4 4 0 1 0 83 11Z"/><path fill="#8889b9" d="M87 22A2 2 0 1 0 87 26A2 2 0 1 0 87 22Z"/><path fill="#fbcd59" d="M81 74A2 2 0 1 0 81 78 2 2 0 1 0 81 74zM15 59A4 4 0 1 0 15 67 4 4 0 1 0 15 59z"/><path fill="#8889b9" d="M25 85A2 2 0 1 0 25 89A2 2 0 1 0 25 85Z"/><path fill="#fff" d="M18.5 49A2.5 2.5 0 1 0 18.5 54 2.5 2.5 0 1 0 18.5 49zM79.5 32A1.5 1.5 0 1 0 79.5 35 1.5 1.5 0 1 0 79.5 32z"/><path fill="#fefdef" d="M70.203,35.576v-6.197c0-1.446-1.172-2.629-2.605-2.629H32.271c-1.432,0-2.605,1.183-2.605,2.629 v43.804l6.904-6.901l6.434,6.901l7.01-6.901l7.01,6.901l6.434-6.901l6.743,6.901v-27.98"/><path fill="#472b29" d="M29.667,73.884c-0.09,0-0.181-0.018-0.268-0.054c-0.261-0.108-0.432-0.363-0.432-0.646V29.379 c0-1.836,1.483-3.329,3.305-3.329h35.327c1.822,0,3.305,1.493,3.305,3.329v6.197c0,0.387-0.313,0.7-0.7,0.7s-0.7-0.313-0.7-0.7 v-6.197c0-1.063-0.854-1.929-1.904-1.929H32.271c-1.05,0-1.905,0.865-1.905,1.929v42.115l5.708-5.707 c0.134-0.134,0.318-0.225,0.507-0.205c0.19,0.004,0.37,0.084,0.5,0.223l5.943,6.375l6.498-6.396c0.272-0.268,0.71-0.268,0.982,0 l6.498,6.396l5.943-6.375c0.131-0.14,0.313-0.22,0.504-0.223c0.186-0.032,0.375,0.074,0.509,0.211l5.542,5.673V45.204 c0-0.387,0.313-0.7,0.7-0.7s0.7,0.313,0.7,0.7v27.979c0,0.284-0.172,0.541-0.436,0.648c-0.264,0.104-0.565,0.045-0.765-0.159 l-6.231-6.377l-5.934,6.365c-0.129,0.138-0.308,0.218-0.497,0.223c-0.202,0.01-0.372-0.068-0.506-0.201l-6.519-6.418l-6.52,6.418 c-0.135,0.132-0.306,0.204-0.506,0.201c-0.189-0.005-0.368-0.085-0.497-0.223l-5.939-6.371l-6.391,6.389 C30.027,73.813,29.849,73.884,29.667,73.884z"/><path fill="#472b29" d="M61.79 54.352c.012 0 .037.013.074.037l-.018-.009c.18.124.341.222.484.293.143.072.698.154.698.154v-2.845l-.167-.093c-.205-.112-.4-.229-.586-.353-.186-.124-.353-.261-.501-.409-.149-.149-.275-.307-.377-.475-.102-.167-.172-.35-.21-.549-.025-.099-.038-.191-.041-.279-.003-.087-.005-.18-.005-.279 0-.292.048-.546.144-.763.096-.217.228-.402.395-.553.167-.151.366-.273.595-.364.23-.089.481-.15.753-.181v-.261c0-.124.028-.229.084-.316.056-.087.158-.131.306-.131h-.039c.329 0 .509.159.541.475l-.01.25c.177.031.359.079.545.144.187.065.397.147.631.246l-.029-.018c.108.037.191.084.252.139.061.057.096.146.109.269v.057c0 .044-.011.099-.033.167-.022.068-.056.133-.1.195-.045.061-.095.116-.152.163-.057.047-.12.07-.19.07-.057 0-.109-.005-.156-.014-.048-.009-.103-.035-.167-.079v-.037l-.293-.055c-.18-.093-.378-.168-.504-.223v2.538l-.054.019c.502.254.89.536 1.162.847.273.309.453.632.54.967.037.143.064.273.079.391.015.117.023.239.023.363 0 .285-.046.542-.14.772-.093.23-.22.43-.381.6-.161.171-.355.311-.581.419-.226.109-.473.182-.648.219v.67c-.092.124-.116.23-.166.316-.049.087-.306-.301-.306-.301h-.056c0 0-.279.389-.372.305-.093-.084-.14-.206.103-.367V55.86c-.577-.037-.866-.112-1.107-.223-.242-.112-.49-.25-.745-.419-.068-.055-.115-.108-.14-.158-.025-.049-.053-.117.396-.204v-.057c-.48-.057-.463-.12-.429-.191.034-.072.076-.14.126-.205.049-.065.102-.121.158-.167.056-.046.108-.07.158-.07.068 0 .128.02.182.061.053.04.104.082.153-.075h.01c.012.206.022.209.028.209L61.79 54.352zM62.512 50.399c.145.136.317.257.516.363v-2.036c-.236.05-.432.145-.59.288s-.237.335-.237.576c0 .037.002.078.005.121.003.044.011.096.023.158C62.271 50.086 62.366 50.264 62.512 50.399zM64.271 52.85c-.124-.151-.273-.283-.446-.395v2.316c.217-.087.399-.22.544-.4.146-.179.219-.391.219-.632 0-.068-.006-.13-.018-.187-.013-.055-.025-.115-.037-.176C64.482 53.177 64.396 53.002 64.271 52.85zM70.083 42.7c-.387 0-.7-.313-.7-.7v-3.667c0-.387.313-.7.7-.7s.7.313.7.7V42C70.784 42.387 70.47 42.7 70.083 42.7zM65.5 35h-30c-.276 0-.5-.224-.5-.5s.224-.5.5-.5h30c.276 0 .5.224.5.5S65.776 35 65.5 35z"/><g><path fill="#472b29" d="M47.5,39h-12c-0.276,0-0.5-0.224-0.5-0.5s0.224-0.5,0.5-0.5h12c0.276,0,0.5,0.224,0.5,0.5 S47.776,39,47.5,39z"/></g><g><path fill="#472b29" d="M55.5,48h-17c-0.276,0-0.5-0.224-0.5-0.5s0.224-0.5,0.5-0.5h17c0.276,0,0.5,0.224,0.5,0.5 S55.776,48,55.5,48z"/></g><g><path fill="#472b29" d="M55.5,51h-17c-0.276,0-0.5-0.224-0.5-0.5s0.224-0.5,0.5-0.5h17c0.276,0,0.5,0.224,0.5,0.5 S55.776,51,55.5,51z"/></g><g><path fill="#472b29" d="M55.5,54h-17c-0.276,0-0.5-0.224-0.5-0.5s0.224-0.5,0.5-0.5h17c0.276,0,0.5,0.224,0.5,0.5 S55.776,54,55.5,54z"/></g><g><path fill="#472b29" d="M55.5,57h-17c-0.276,0-0.5-0.224-0.5-0.5s0.224-0.5,0.5-0.5h17c0.276,0,0.5,0.224,0.5,0.5 S55.776,57,55.5,57z"/></g><g><path fill="#472b29" d="M35.5 47A0.5 0.5 0 1 0 35.5 48A0.5 0.5 0 1 0 35.5 47Z"/></g><g><path fill="#472b29" d="M35.5 50A0.5 0.5 0 1 0 35.5 51A0.5 0.5 0 1 0 35.5 50Z"/></g><g><path fill="#472b29" d="M35.5 53A0.5 0.5 0 1 0 35.5 54A0.5 0.5 0 1 0 35.5 53Z"/></g><g><path fill="#472b29" d="M35.5 56A0.5 0.5 0 1 0 35.5 57A0.5 0.5 0 1 0 35.5 56Z"/></g></svg>