<svg xmlns="http://www.w3.org/2000/svg" viewBox="0 0 100 100"><path fill="#f1bc19" d="M77 12A1 1 0 1 0 77 14A1 1 0 1 0 77 12Z"/><path fill="#e4e4f9" d="M50 13A37 37 0 1 0 50 87A37 37 0 1 0 50 13Z"/><path fill="#f1bc19" d="M83 11A4 4 0 1 0 83 19A4 4 0 1 0 83 11Z"/><path fill="#8889b9" d="M87 22A2 2 0 1 0 87 26A2 2 0 1 0 87 22Z"/><path fill="#fbcd59" d="M81 74A2 2 0 1 0 81 78 2 2 0 1 0 81 74zM15 59A4 4 0 1 0 15 67 4 4 0 1 0 15 59z"/><path fill="#8889b9" d="M25 85A2 2 0 1 0 25 89A2 2 0 1 0 25 85Z"/><path fill="#fff" d="M79.5 32A1.5 1.5 0 1 0 79.5 35A1.5 1.5 0 1 0 79.5 32Z"/><path fill="#fdfcee" d="M32.15,72.3c-1.352,0-2.45-1.099-2.45-2.45V33.15c0-1.352,1.099-2.45,2.45-2.45H70.85 c1.352,0,2.45,1.099,2.45,2.45V69.85c0,1.352-1.099,2.45-2.45,2.45H32.15z"/><path fill="#472b29" d="M70.85,31.4c0.965,0,1.75,0.785,1.75,1.75v36.7c0,0.965-0.785,1.75-1.75,1.75h-38.7 c-0.965,0-1.75-0.785-1.75-1.75v-36.7c0-0.965,0.785-1.75,1.75-1.75H70.85 M70.85,30h-38.7C30.41,30,29,31.41,29,33.15v36.7 c0,1.74,1.41,3.15,3.15,3.15h38.7c1.74,0,3.15-1.41,3.15-3.15v-36.7C74,31.41,72.59,30,70.85,30L70.85,30z"/><path fill="#ef7d99" d="M30.417,41h42.167v-7.875c0-0.99-0.802-1.792-1.792-1.792h-38.75c-0.897,0-1.625,0.728-1.625,1.625 V41z"/><path fill="#fff6ae" d="M65.25 46.25H69.75V50.75H65.25z"/><path fill="#472b29" d="M69.5,46.5v4h-4v-4H69.5 M70,46h-5v5h5V46L70,46z"/><path fill="#fff6ae" d="M57.25 46.25H61.75V50.75H57.25z"/><path fill="#472b29" d="M61.5,46.5v4h-4v-4H61.5 M62,46h-5v5h5V46L62,46z"/><path fill="#fff6ae" d="M49.25 46.25H53.75V50.75H49.25z"/><path fill="#472b29" d="M53.5,46.5v4h-4v-4H53.5 M54,46h-5v5h5V46L54,46z"/><path fill="#fff6ae" d="M41.25 46.25H45.75V50.75H41.25z"/><path fill="#472b29" d="M45.5,46.5v4h-4v-4H45.5 M46,46h-5v5h5V46L46,46z"/><path fill="#fff6ae" d="M33.25 46.25H37.75V50.75H33.25z"/><path fill="#472b29" d="M37.5,46.5v4h-4v-4H37.5 M38,46h-5v5h5V46L38,46z"/><g><path fill="#fff6ae" d="M65.25 54.25H69.75V58.75H65.25z"/><path fill="#472b29" d="M69.5,54.5v4h-4v-4H69.5 M70,54h-5v5h5V54L70,54z"/></g><g><path fill="#fff6ae" d="M57.25 54.25H61.75V58.75H57.25z"/><path fill="#472b29" d="M61.5,54.5v4h-4v-4H61.5 M62,54h-5v5h5V54L62,54z"/></g><g><path fill="#fff6ae" d="M49.25 54.25H53.75V58.75H49.25z"/><path fill="#472b29" d="M53.5,54.5v4h-4v-4H53.5 M54,54h-5v5h5V54L54,54z"/></g><g><path fill="#fff6ae" d="M41.25 54.25H45.75V58.75H41.25z"/><path fill="#472b29" d="M45.5,54.5v4h-4v-4H45.5 M46,54h-5v5h5V54L46,54z"/></g><g><path fill="#fff6ae" d="M33.25 54.25H37.75V58.75H33.25z"/><path fill="#472b29" d="M37.5,54.5v4h-4v-4H37.5 M38,54h-5v5h5V54L38,54z"/></g><g><path fill="#fff6ae" d="M49.25 62.25H53.75V66.75H49.25z"/><path fill="#472b29" d="M53.5,62.5v4h-4v-4H53.5 M54,62h-5v5h5V62L54,62z"/></g><g><path fill="#fff6ae" d="M41.25 62.25H45.75V66.75H41.25z"/><path fill="#472b29" d="M45.5,62.5v4h-4v-4H45.5 M46,62h-5v5h5V62L46,62z"/></g><g><path fill="#fff6ae" d="M33.25 62.25H37.75V66.75H33.25z"/><path fill="#472b29" d="M37.5,62.5v4h-4v-4H37.5 M38,62h-5v5h5V62L38,62z"/></g><g><path fill="#472b29" d="M66.5 34.2c-.387 0-.7-.313-.7-.7v-5c0-.387.313-.7.7-.7s.7.313.7.7v5C67.2 33.887 66.887 34.2 66.5 34.2zM61.5 34.2c-.387 0-.7-.313-.7-.7v-5c0-.387.313-.7.7-.7s.7.313.7.7v5C62.2 33.887 61.887 34.2 61.5 34.2zM56.5 34.2c-.387 0-.7-.313-.7-.7v-5c0-.387.313-.7.7-.7s.7.313.7.7v5C57.2 33.887 56.887 34.2 56.5 34.2zM51.5 34.2c-.387 0-.7-.313-.7-.7v-5c0-.387.313-.7.7-.7s.7.313.7.7v5C52.2 33.887 51.887 34.2 51.5 34.2zM46.5 34.2c-.387 0-.7-.313-.7-.7v-5c0-.387.313-.7.7-.7s.7.313.7.7v5C47.2 33.887 46.887 34.2 46.5 34.2zM41.5 34.2c-.387 0-.7-.313-.7-.7v-5c0-.387.313-.7.7-.7s.7.313.7.7v5C42.2 33.887 41.887 34.2 41.5 34.2zM36.5 34.2c-.387 0-.7-.313-.7-.7v-5c0-.387.313-.7.7-.7s.7.313.7.7v5C37.2 33.887 36.887 34.2 36.5 34.2z"/></g><g><path fill="#472b29" d="M56.5,41h-26c-0.276,0-0.5-0.224-0.5-0.5s0.224-0.5,0.5-0.5h26c0.276,0,0.5,0.224,0.5,0.5 S56.776,41,56.5,41z"/></g><g><path fill="#472b29" d="M64.5,41h-4c-0.276,0-0.5-0.224-0.5-0.5s0.224-0.5,0.5-0.5h4c0.276,0,0.5,0.224,0.5,0.5 S64.776,41,64.5,41z"/></g><g><path fill="#472b29" d="M72.5,41h-5c-0.276,0-0.5-0.224-0.5-0.5s0.224-0.5,0.5-0.5h5c0.276,0,0.5,0.224,0.5,0.5 S72.776,41,72.5,41z"/></g><g><path fill="#ea4989" d="M62.6,53.4v6.2h-6.2v-6.2H62.6 M64,52h-9v9h9V52L64,52z"/></g></svg>