<svg xmlns="http://www.w3.org/2000/svg" viewBox="0 0 100 100"><path fill="#78a0cf" d="M13 27A2 2 0 1 0 13 31A2 2 0 1 0 13 27Z"/><path fill="#f1bc19" d="M77 12A1 1 0 1 0 77 14A1 1 0 1 0 77 12Z"/><path fill="#cee1f4" d="M50 13A37 37 0 1 0 50 87A37 37 0 1 0 50 13Z"/><path fill="#f1bc19" d="M83 11A4 4 0 1 0 83 19A4 4 0 1 0 83 11Z"/><path fill="#78a0cf" d="M87 22A2 2 0 1 0 87 26A2 2 0 1 0 87 22Z"/><path fill="#fbcd59" d="M81 74A2 2 0 1 0 81 78 2 2 0 1 0 81 74zM15 59A4 4 0 1 0 15 67 4 4 0 1 0 15 59z"/><path fill="#78a0cf" d="M25 85A2 2 0 1 0 25 89A2 2 0 1 0 25 85Z"/><path fill="#fff" d="M18.5 51A2.5 2.5 0 1 0 18.5 56A2.5 2.5 0 1 0 18.5 51Z"/><path fill="#f1bc19" d="M21 66A1 1 0 1 0 21 68A1 1 0 1 0 21 66Z"/><path fill="#fff" d="M80 33A1 1 0 1 0 80 35A1 1 0 1 0 80 33Z"/><path fill="#fdfcee" d="M65.363,48.272V32.109c-3.655-3.557-5.704-5.552-9.359-9.109H40.14C37.863,23,36,24.767,36,26.929 v21.343"/><path fill="#472b29" d="M66.063,48.271h-1.4V32.404L55.719,23.7H40.14c-1.896,0-3.439,1.448-3.439,3.229v21.343h-1.4V26.929 c0-2.553,2.171-4.629,4.84-4.629h16.147l9.775,9.513V48.271z"/><g><path fill="#d6d3c5" d="M67.7,69.3v-2.032c0-1.712-1.144-1.968-1.825-1.968H35.058c-1.002,0-1.758,0.732-1.758,1.704V69.3 h-3.137c-2.461,0-4.463-2.168-4.463-4.832V50.531c0-2.664,2.002-4.831,4.463-4.831H33.3v2.032c0,0.533,0.435,0.968,0.968,0.968 H67.66l0.04-0.74V45.7h2.491c2.816,0,5.108,2.168,5.108,4.832v13.936c0,2.664-2.292,4.832-5.108,4.832H67.7z"/><path fill="#472b29" d="M70.191,46.4c2.431,0,4.409,1.854,4.409,4.132v13.936c0,2.278-1.978,4.132-4.409,4.132H68.4v-1.332 c0-1.967-1.304-2.668-2.525-2.668H35.058c-1.378,0-2.458,1.056-2.458,2.404V68.6h-2.437c-2.075,0-3.763-1.854-3.763-4.132V50.531 c0-2.278,1.688-4.131,3.763-4.131H32.6v1.332c0,0.92,0.748,1.668,1.668,1.668H66.96c0.794,0,1.44-0.646,1.44-1.44V46.4H70.191 M70.191,45H67v2.96c0,0.022-0.018,0.04-0.04,0.04H34.268C34.12,48,34,47.88,34,47.732V45h-3.837C27.323,45,25,47.489,25,50.531 v13.936C25,67.511,27.323,70,30.163,70H34v-2.996C34,66.458,34.417,66,35.058,66h30.817C66.75,66,67,66.5,67,67.268V70h3.191 C73.386,70,76,67.511,76,64.468V50.532C76,47.489,73.386,45,70.191,45L70.191,45z"/></g><g><path fill="#fef6aa" d="M55.5,23v5.666c0,2.109,1.725,3.834,3.834,3.834H65"/><path fill="#472b29" d="M65,33h-5.666C56.944,33,55,31.056,55,28.666V23h1v5.666C56,30.504,57.496,32,59.334,32H65V33z"/></g><g><path fill="#fdfcee" d="M37.787,74.3c-0.589,0-1.087-0.43-1.087-0.939v-8.035h27.6v8.035c0,0.51-0.498,0.939-1.087,0.939 H37.787z"/><path fill="#472b29" d="M63.6,66.025v7.336c0,0.095-0.154,0.239-0.387,0.239H37.787c-0.233,0-0.387-0.144-0.387-0.239 v-7.336H63.6 M65,64.625H36v8.736C36,74.262,36.804,75,37.787,75h25.426C64.196,75,65,74.262,65,73.361V64.625L65,64.625z"/></g><g><path fill="#fff" d="M33.581,53.5h-4.162c-0.505,0-0.919-0.413-0.919-0.919v-0.162c0-0.505,0.413-0.919,0.919-0.919 h4.162c0.505,0,0.919,0.413,0.919,0.919v0.162C34.5,53.087,34.086,53.5,33.581,53.5z"/><path fill="#472b29" d="M33.581,53.75h-4.162c-0.645,0-1.169-0.524-1.169-1.169v-0.162c0-0.645,0.524-1.169,1.169-1.169 h4.162c0.645,0,1.169,0.524,1.169,1.169v0.162C34.75,53.226,34.226,53.75,33.581,53.75z M29.419,51.75 c-0.369,0-0.669,0.3-0.669,0.669v0.162c0,0.369,0.3,0.669,0.669,0.669h4.162c0.369,0,0.669-0.3,0.669-0.669v-0.162 c0-0.369-0.3-0.669-0.669-0.669H29.419z"/></g><g><path fill="#ef5390" d="M70.909 50A1.909 1.909 0 1 0 70.909 53.818A1.909 1.909 0 1 0 70.909 50Z"/><path fill="#472b29" d="M70.908,54.067c-1.19,0-2.158-0.969-2.158-2.159s0.968-2.158,2.158-2.158s2.159,0.968,2.159,2.158 S72.099,54.067,70.908,54.067z M70.908,50.25c-0.914,0-1.658,0.744-1.658,1.658c0,0.915,0.744,1.659,1.658,1.659 c0.915,0,1.659-0.744,1.659-1.659C72.567,50.994,71.823,50.25,70.908,50.25z"/></g><g><path fill="#472b29" d="M61.5,42h-5.458c-0.276,0-0.5-0.224-0.5-0.5s0.224-0.5,0.5-0.5H61v-5h-8v5.5 c0,0.276-0.224,0.5-0.5,0.5S52,41.776,52,41.5v-6c0-0.276,0.224-0.5,0.5-0.5h9c0.276,0,0.5,0.224,0.5,0.5v6 C62,41.776,61.776,42,61.5,42z"/></g><g><path fill="#472b29" d="M49.5,36h-10c-0.276,0-0.5-0.224-0.5-0.5s0.224-0.5,0.5-0.5h10c0.276,0,0.5,0.224,0.5,0.5 S49.776,36,49.5,36z"/></g><g><path fill="#472b29" d="M49.5,39h-10c-0.276,0-0.5-0.224-0.5-0.5s0.224-0.5,0.5-0.5h10c0.276,0,0.5,0.224,0.5,0.5 S49.776,39,49.5,39z"/></g><g><path fill="#472b29" d="M49.5,42h-10c-0.276,0-0.5-0.224-0.5-0.5s0.224-0.5,0.5-0.5h10c0.276,0,0.5,0.224,0.5,0.5 S49.776,42,49.5,42z"/></g><g><path fill="#472b29" d="M52.5,45h-13c-0.276,0-0.5-0.224-0.5-0.5s0.224-0.5,0.5-0.5h13c0.276,0,0.5,0.224,0.5,0.5 S52.776,45,52.5,45z"/></g><g><path fill="#472b29" d="M61.5,45h-6c-0.276,0-0.5-0.224-0.5-0.5s0.224-0.5,0.5-0.5h6c0.276,0,0.5,0.224,0.5,0.5 S61.776,45,61.5,45z"/></g></svg>